# xmcd
#
# Track frame offsets:
#	150
#	13792
#	26894
#	39229
#	53746
#	67654
#	81472
#	95984
#	108022
#	122301
#	134137
#	146541
#	158155
#	172344
#	186501
#	199570
#	213656
#	227581
#
# Disc length: 3212 seconds
#
# Revision: 0
# Processed by: cddbd v1.5.2PL0 Copyright (c) Steve Scherf et al.
# Submitted via: audiograbber 1.83.01
#
DISCID=020c8a12
DTITLE=Ella Fitzgerald - Masters of Music - CD 2
DYEAR=2005
DGENRE=Oldies
TTITLE0=My melancholy baby
TTITLE1=When I come back crying (will you be laughing at me?)
TTITLE2=Mama come home
TTITLE3=Don't worry 'bout me
TTITLE4=You can't be mine
TTITLE5=The one I love belongs to somebody else
TTITLE6=I let a tear fall in the river
TTITLE7=I'm the lonesomest gal in town
TTITLE8=Coochie-coochie-coo
TTITLE9=Petootie Pie
TTITLE10=As you desire me
TTITLE11=Sing me a Swing Song
TTITLE12=Into each life some rain must fall
TTITLE13=Taking a chance of love
TTITLE14=A four leaf clover in your pocket
TTITLE15=Time alone will tell
TTITLE16=Keep cool, fool
TTITLE17=Heart of mine
EXTD=
EXTT0=
EXTT1=
EXTT2=
EXTT3=
EXTT4=
EXTT5=
EXTT6=
EXTT7=
EXTT8=
EXTT9=
EXTT10=
EXTT11=
EXTT12=
EXTT13=
EXTT14=
EXTT15=
EXTT16=
EXTT17=
PLAYORDER=
